<mxfile host="app.diagrams.net" modified="2023-10-09T17:09:40.653Z" agent="Mozilla/5.0 (Macintosh; Intel Mac OS X 10_15_7) AppleWebKit/537.36 (KHTML, like Gecko) Chrome/117.0.0.0 Safari/537.36" etag="gFUGr53RS0PyUPPdjplS" version="22.0.4" type="github">
  <diagram id="C5RBs43oDa-KdzZeNtuy" name="Page-1">
    <mxGraphModel dx="1194" dy="2948" grid="1" gridSize="10" guides="1" tooltips="1" connect="1" arrows="1" fold="1" page="1" pageScale="1" pageWidth="827" pageHeight="1169" math="0" shadow="0">
      <root>
        <mxCell id="WIyWlLk6GJQsqaUBKTNV-0" />
        <mxCell id="WIyWlLk6GJQsqaUBKTNV-1" parent="WIyWlLk6GJQsqaUBKTNV-0" />
        <mxCell id="UDaEp6XYaym_nUN5YhJv-0" value="" style="shape=tape;whiteSpace=wrap;html=1;strokeWidth=2;size=0.19;fillColor=#CC99FF;strokeColor=#9673a6;gradientColor=default;" parent="WIyWlLk6GJQsqaUBKTNV-1" vertex="1">
          <mxGeometry x="20" y="-1570" width="100" height="65" as="geometry" />
        </mxCell>
        <mxCell id="UDaEp6XYaym_nUN5YhJv-1" value="" style="shape=tape;whiteSpace=wrap;html=1;strokeWidth=2;size=0.19;fillColor=#CC99FF;strokeColor=#9673a6;gradientColor=default;" parent="WIyWlLk6GJQsqaUBKTNV-1" vertex="1">
          <mxGeometry x="340" y="-1570" width="100" height="65" as="geometry" />
        </mxCell>
        <mxCell id="UDaEp6XYaym_nUN5YhJv-2" value="" style="shape=tape;whiteSpace=wrap;html=1;strokeWidth=2;size=0.19;fillColor=#CC99FF;strokeColor=#9673a6;gradientColor=default;" parent="WIyWlLk6GJQsqaUBKTNV-1" vertex="1">
          <mxGeometry x="500" y="-1570" width="100" height="65" as="geometry" />
        </mxCell>
        <mxCell id="UDaEp6XYaym_nUN5YhJv-3" value="" style="shape=tape;whiteSpace=wrap;html=1;strokeWidth=2;size=0.19;fillColor=#CC99FF;strokeColor=#9673a6;gradientColor=default;" parent="WIyWlLk6GJQsqaUBKTNV-1" vertex="1">
          <mxGeometry x="180" y="-1570" width="100" height="65" as="geometry" />
        </mxCell>
        <mxCell id="UDaEp6XYaym_nUN5YhJv-4" value="" style="shape=tape;whiteSpace=wrap;html=1;strokeWidth=2;size=0.19;fillColor=#CC99FF;strokeColor=#9673a6;gradientColor=default;" parent="WIyWlLk6GJQsqaUBKTNV-1" vertex="1">
          <mxGeometry x="20" y="-1680" width="100" height="65" as="geometry" />
        </mxCell>
        <mxCell id="UDaEp6XYaym_nUN5YhJv-5" value="" style="shape=tape;whiteSpace=wrap;html=1;strokeWidth=2;size=0.19;fillColor=#CC99FF;strokeColor=#9673a6;gradientColor=default;" parent="WIyWlLk6GJQsqaUBKTNV-1" vertex="1">
          <mxGeometry x="180" y="-1675" width="100" height="65" as="geometry" />
        </mxCell>
        <mxCell id="UDaEp6XYaym_nUN5YhJv-6" value="" style="shape=tape;whiteSpace=wrap;html=1;strokeWidth=2;size=0.19;fillColor=#CC99FF;strokeColor=#9673a6;gradientColor=default;" parent="WIyWlLk6GJQsqaUBKTNV-1" vertex="1">
          <mxGeometry x="340" y="-1675" width="100" height="65" as="geometry" />
        </mxCell>
        <mxCell id="UDaEp6XYaym_nUN5YhJv-7" value="" style="shape=tape;whiteSpace=wrap;html=1;strokeWidth=2;size=0.19;fillColor=#CC99FF;strokeColor=#9673a6;gradientColor=default;" parent="WIyWlLk6GJQsqaUBKTNV-1" vertex="1">
          <mxGeometry x="500" y="-1675" width="100" height="65" as="geometry" />
        </mxCell>
        <mxCell id="UDaEp6XYaym_nUN5YhJv-8" value="" style="shape=tape;whiteSpace=wrap;html=1;strokeWidth=2;size=0.19;fillColor=#CC99FF;strokeColor=#9673a6;gradientColor=default;" parent="WIyWlLk6GJQsqaUBKTNV-1" vertex="1">
          <mxGeometry x="660" y="-1675" width="100" height="65" as="geometry" />
        </mxCell>
        <mxCell id="UDaEp6XYaym_nUN5YhJv-9" value="" style="shape=tape;whiteSpace=wrap;html=1;strokeWidth=2;size=0.19;fillColor=#CC99FF;strokeColor=#9673a6;gradientColor=default;" parent="WIyWlLk6GJQsqaUBKTNV-1" vertex="1">
          <mxGeometry x="660" y="-1780" width="100" height="65" as="geometry" />
        </mxCell>
        <mxCell id="UDaEp6XYaym_nUN5YhJv-10" value="" style="shape=tape;whiteSpace=wrap;html=1;strokeWidth=2;size=0.19;fillColor=#CC99FF;strokeColor=#9673a6;gradientColor=default;" parent="WIyWlLk6GJQsqaUBKTNV-1" vertex="1">
          <mxGeometry x="500" y="-1780" width="100" height="65" as="geometry" />
        </mxCell>
        <mxCell id="UDaEp6XYaym_nUN5YhJv-11" value="" style="shape=tape;whiteSpace=wrap;html=1;strokeWidth=2;size=0.19;fillColor=#CC99FF;strokeColor=#9673a6;gradientColor=default;" parent="WIyWlLk6GJQsqaUBKTNV-1" vertex="1">
          <mxGeometry x="340" y="-1780" width="100" height="65" as="geometry" />
        </mxCell>
        <mxCell id="UDaEp6XYaym_nUN5YhJv-12" value="" style="shape=tape;whiteSpace=wrap;html=1;strokeWidth=2;size=0.19;fillColor=#CC99FF;strokeColor=#9673a6;gradientColor=default;" parent="WIyWlLk6GJQsqaUBKTNV-1" vertex="1">
          <mxGeometry x="180" y="-1780" width="100" height="65" as="geometry" />
        </mxCell>
        <mxCell id="UDaEp6XYaym_nUN5YhJv-13" value="" style="shape=tape;whiteSpace=wrap;html=1;strokeWidth=2;size=0.19;fillColor=#CC99FF;strokeColor=#9673a6;gradientColor=default;" parent="WIyWlLk6GJQsqaUBKTNV-1" vertex="1">
          <mxGeometry x="20" y="-1780" width="100" height="65" as="geometry" />
        </mxCell>
        <mxCell id="UDaEp6XYaym_nUN5YhJv-14" value="" style="endArrow=none;html=1;rounded=0;exitX=1;exitY=0.5;exitDx=0;exitDy=0;exitPerimeter=0;entryX=0;entryY=0.5;entryDx=0;entryDy=0;entryPerimeter=0;" parent="WIyWlLk6GJQsqaUBKTNV-1" source="UDaEp6XYaym_nUN5YhJv-13" target="UDaEp6XYaym_nUN5YhJv-12" edge="1">
          <mxGeometry width="50" height="50" relative="1" as="geometry">
            <mxPoint x="150" y="-1675" as="sourcePoint" />
            <mxPoint x="170" y="-1747" as="targetPoint" />
          </mxGeometry>
        </mxCell>
        <mxCell id="UDaEp6XYaym_nUN5YhJv-15" value="" style="endArrow=none;html=1;rounded=0;exitX=0.5;exitY=0.123;exitDx=0;exitDy=0;exitPerimeter=0;entryX=0.51;entryY=0.877;entryDx=0;entryDy=0;entryPerimeter=0;" parent="WIyWlLk6GJQsqaUBKTNV-1" source="UDaEp6XYaym_nUN5YhJv-8" target="UDaEp6XYaym_nUN5YhJv-9" edge="1">
          <mxGeometry width="50" height="50" relative="1" as="geometry">
            <mxPoint x="650" y="-1700" as="sourcePoint" />
            <mxPoint x="710" y="-1700" as="targetPoint" />
          </mxGeometry>
        </mxCell>
        <mxCell id="UDaEp6XYaym_nUN5YhJv-16" value="" style="endArrow=none;html=1;rounded=0;exitX=1;exitY=0.5;exitDx=0;exitDy=0;exitPerimeter=0;entryX=0;entryY=0.5;entryDx=0;entryDy=0;entryPerimeter=0;" parent="WIyWlLk6GJQsqaUBKTNV-1" edge="1">
          <mxGeometry width="50" height="50" relative="1" as="geometry">
            <mxPoint x="440" y="-1540" as="sourcePoint" />
            <mxPoint x="500" y="-1540" as="targetPoint" />
          </mxGeometry>
        </mxCell>
        <mxCell id="UDaEp6XYaym_nUN5YhJv-17" value="" style="endArrow=none;html=1;rounded=0;exitX=1;exitY=0.5;exitDx=0;exitDy=0;exitPerimeter=0;entryX=0;entryY=0.5;entryDx=0;entryDy=0;entryPerimeter=0;" parent="WIyWlLk6GJQsqaUBKTNV-1" edge="1">
          <mxGeometry width="50" height="50" relative="1" as="geometry">
            <mxPoint x="280" y="-1538" as="sourcePoint" />
            <mxPoint x="340" y="-1538" as="targetPoint" />
          </mxGeometry>
        </mxCell>
        <mxCell id="UDaEp6XYaym_nUN5YhJv-18" value="" style="endArrow=none;html=1;rounded=0;exitX=1;exitY=0.5;exitDx=0;exitDy=0;exitPerimeter=0;entryX=0;entryY=0.5;entryDx=0;entryDy=0;entryPerimeter=0;" parent="WIyWlLk6GJQsqaUBKTNV-1" edge="1">
          <mxGeometry width="50" height="50" relative="1" as="geometry">
            <mxPoint x="120" y="-1538" as="sourcePoint" />
            <mxPoint x="180" y="-1538" as="targetPoint" />
          </mxGeometry>
        </mxCell>
        <mxCell id="UDaEp6XYaym_nUN5YhJv-19" value="" style="endArrow=none;html=1;rounded=0;exitX=1;exitY=0.5;exitDx=0;exitDy=0;exitPerimeter=0;entryX=0;entryY=0.5;entryDx=0;entryDy=0;entryPerimeter=0;" parent="WIyWlLk6GJQsqaUBKTNV-1" edge="1">
          <mxGeometry width="50" height="50" relative="1" as="geometry">
            <mxPoint x="440" y="-1753" as="sourcePoint" />
            <mxPoint x="500" y="-1753" as="targetPoint" />
          </mxGeometry>
        </mxCell>
        <mxCell id="UDaEp6XYaym_nUN5YhJv-20" value="" style="endArrow=none;html=1;rounded=0;exitX=1;exitY=0.5;exitDx=0;exitDy=0;exitPerimeter=0;entryX=0;entryY=0.5;entryDx=0;entryDy=0;entryPerimeter=0;" parent="WIyWlLk6GJQsqaUBKTNV-1" edge="1">
          <mxGeometry width="50" height="50" relative="1" as="geometry">
            <mxPoint x="120" y="-1643" as="sourcePoint" />
            <mxPoint x="180" y="-1643" as="targetPoint" />
          </mxGeometry>
        </mxCell>
        <mxCell id="UDaEp6XYaym_nUN5YhJv-21" value="" style="endArrow=none;html=1;rounded=0;exitX=1;exitY=0.5;exitDx=0;exitDy=0;exitPerimeter=0;entryX=0;entryY=0.5;entryDx=0;entryDy=0;entryPerimeter=0;" parent="WIyWlLk6GJQsqaUBKTNV-1" edge="1">
          <mxGeometry width="50" height="50" relative="1" as="geometry">
            <mxPoint x="280" y="-1643" as="sourcePoint" />
            <mxPoint x="340" y="-1643" as="targetPoint" />
          </mxGeometry>
        </mxCell>
        <mxCell id="UDaEp6XYaym_nUN5YhJv-22" value="" style="endArrow=none;html=1;rounded=0;exitX=1;exitY=0.5;exitDx=0;exitDy=0;exitPerimeter=0;entryX=0;entryY=0.5;entryDx=0;entryDy=0;entryPerimeter=0;" parent="WIyWlLk6GJQsqaUBKTNV-1" edge="1">
          <mxGeometry width="50" height="50" relative="1" as="geometry">
            <mxPoint x="440" y="-1643" as="sourcePoint" />
            <mxPoint x="500" y="-1643" as="targetPoint" />
          </mxGeometry>
        </mxCell>
        <mxCell id="UDaEp6XYaym_nUN5YhJv-23" value="" style="endArrow=none;html=1;rounded=0;exitX=1;exitY=0.5;exitDx=0;exitDy=0;exitPerimeter=0;entryX=0;entryY=0.5;entryDx=0;entryDy=0;entryPerimeter=0;" parent="WIyWlLk6GJQsqaUBKTNV-1" edge="1">
          <mxGeometry width="50" height="50" relative="1" as="geometry">
            <mxPoint x="600" y="-1643" as="sourcePoint" />
            <mxPoint x="660" y="-1643" as="targetPoint" />
          </mxGeometry>
        </mxCell>
        <mxCell id="UDaEp6XYaym_nUN5YhJv-24" value="" style="endArrow=none;html=1;rounded=0;exitX=1;exitY=0.5;exitDx=0;exitDy=0;exitPerimeter=0;entryX=0;entryY=0.5;entryDx=0;entryDy=0;entryPerimeter=0;" parent="WIyWlLk6GJQsqaUBKTNV-1" edge="1">
          <mxGeometry width="50" height="50" relative="1" as="geometry">
            <mxPoint x="280" y="-1750" as="sourcePoint" />
            <mxPoint x="340" y="-1750" as="targetPoint" />
          </mxGeometry>
        </mxCell>
        <mxCell id="UDaEp6XYaym_nUN5YhJv-25" value="" style="endArrow=none;html=1;rounded=0;exitX=1;exitY=0.5;exitDx=0;exitDy=0;exitPerimeter=0;entryX=0;entryY=0.5;entryDx=0;entryDy=0;entryPerimeter=0;" parent="WIyWlLk6GJQsqaUBKTNV-1" edge="1">
          <mxGeometry width="50" height="50" relative="1" as="geometry">
            <mxPoint x="600" y="-1753" as="sourcePoint" />
            <mxPoint x="660" y="-1753" as="targetPoint" />
          </mxGeometry>
        </mxCell>
        <mxCell id="UDaEp6XYaym_nUN5YhJv-26" value="" style="endArrow=none;html=1;rounded=0;exitX=0.5;exitY=0.123;exitDx=0;exitDy=0;exitPerimeter=0;entryX=0.51;entryY=0.877;entryDx=0;entryDy=0;entryPerimeter=0;" parent="WIyWlLk6GJQsqaUBKTNV-1" edge="1">
          <mxGeometry width="50" height="50" relative="1" as="geometry">
            <mxPoint x="69.5" y="-1564" as="sourcePoint" />
            <mxPoint x="70.5" y="-1620" as="targetPoint" />
          </mxGeometry>
        </mxCell>
        <mxCell id="UDaEp6XYaym_nUN5YhJv-27" value="Born in Ciudad Juarez, Mexico - 1999" style="text;strokeColor=none;align=center;fillColor=none;html=1;verticalAlign=middle;whiteSpace=wrap;rounded=0;fontColor=#FCFCFC;" parent="WIyWlLk6GJQsqaUBKTNV-1" vertex="1">
          <mxGeometry x="20" y="-1771.25" width="100" height="47.5" as="geometry" />
        </mxCell>
        <mxCell id="UDaEp6XYaym_nUN5YhJv-28" value="Broke hand - 2008" style="text;strokeColor=none;align=center;fillColor=none;html=1;verticalAlign=middle;whiteSpace=wrap;rounded=0;fontColor=#FFFFFF;" parent="WIyWlLk6GJQsqaUBKTNV-1" vertex="1">
          <mxGeometry x="190" y="-1771.25" width="80" height="47.5" as="geometry" />
        </mxCell>
        <mxCell id="UDaEp6XYaym_nUN5YhJv-29" value="Lydia Patterson - 2011-2012" style="text;strokeColor=none;align=center;fillColor=none;html=1;verticalAlign=middle;whiteSpace=wrap;rounded=0;fontColor=#FFFFFF;" parent="WIyWlLk6GJQsqaUBKTNV-1" vertex="1">
          <mxGeometry x="350" y="-1776.25" width="80" height="57.5" as="geometry" />
        </mxCell>
        <mxCell id="UDaEp6XYaym_nUN5YhJv-30" value="Moved to US - 2013" style="text;strokeColor=none;align=center;fillColor=none;html=1;verticalAlign=middle;whiteSpace=wrap;rounded=0;fontColor=#FFFFFF;" parent="WIyWlLk6GJQsqaUBKTNV-1" vertex="1">
          <mxGeometry x="520" y="-1762.5" width="60" height="30" as="geometry" />
        </mxCell>
        <mxCell id="UDaEp6XYaym_nUN5YhJv-31" value="Beckman High School - 2013-2017" style="text;strokeColor=none;align=center;fillColor=none;html=1;verticalAlign=middle;whiteSpace=wrap;rounded=0;fontColor=#FFFFFF;" parent="WIyWlLk6GJQsqaUBKTNV-1" vertex="1">
          <mxGeometry x="665" y="-1771.25" width="90" height="42.5" as="geometry" />
        </mxCell>
        <mxCell id="UDaEp6XYaym_nUN5YhJv-32" value="Mount Mercy - 2017-2021" style="text;strokeColor=none;align=center;fillColor=none;html=1;verticalAlign=middle;whiteSpace=wrap;rounded=0;fontColor=#FCFCFC;" parent="WIyWlLk6GJQsqaUBKTNV-1" vertex="1">
          <mxGeometry x="520" y="-1657.5" width="60" height="30" as="geometry" />
        </mxCell>
        <mxCell id="UDaEp6XYaym_nUN5YhJv-33" value="Broke Hand - 2014" style="text;strokeColor=none;align=center;fillColor=none;html=1;verticalAlign=middle;whiteSpace=wrap;rounded=0;fontColor=#FFFFFF;" parent="WIyWlLk6GJQsqaUBKTNV-1" vertex="1">
          <mxGeometry x="680" y="-1657.5" width="60" height="30" as="geometry" />
        </mxCell>
        <mxCell id="UDaEp6XYaym_nUN5YhJv-34" value="Volunteering at Mercy - 2019" style="text;strokeColor=none;align=center;fillColor=none;html=1;verticalAlign=middle;whiteSpace=wrap;rounded=0;fontColor=#FFFFFF;" parent="WIyWlLk6GJQsqaUBKTNV-1" vertex="1">
          <mxGeometry x="360" y="-1657.5" width="60" height="30" as="geometry" />
        </mxCell>
        <mxCell id="UDaEp6XYaym_nUN5YhJv-35" value="First Job - St Luke&#39;s - 2020" style="text;strokeColor=none;align=center;fillColor=none;html=1;verticalAlign=middle;whiteSpace=wrap;rounded=0;fontColor=#FFFFFF;" parent="WIyWlLk6GJQsqaUBKTNV-1" vertex="1">
          <mxGeometry x="200" y="-1657.5" width="60" height="30" as="geometry" />
        </mxCell>
        <mxCell id="UDaEp6XYaym_nUN5YhJv-36" value="Working various jobs as CNA - 2020-2023" style="text;strokeColor=none;align=center;fillColor=none;html=1;verticalAlign=middle;whiteSpace=wrap;rounded=0;fontColor=#FCFCFC;" parent="WIyWlLk6GJQsqaUBKTNV-1" vertex="1">
          <mxGeometry x="20" y="-1675" width="100" height="52.5" as="geometry" />
        </mxCell>
        <mxCell id="UDaEp6XYaym_nUN5YhJv-37" value="UIowa MPH - 2022" style="text;strokeColor=none;align=center;fillColor=none;html=1;verticalAlign=middle;whiteSpace=wrap;rounded=0;fontColor=#FFFFFF;" parent="WIyWlLk6GJQsqaUBKTNV-1" vertex="1">
          <mxGeometry x="35" y="-1553.75" width="70" height="32.5" as="geometry" />
        </mxCell>
        <mxCell id="UDaEp6XYaym_nUN5YhJv-38" value="Genetics Research at Uiowa - 2023" style="text;strokeColor=none;align=center;fillColor=none;html=1;verticalAlign=middle;whiteSpace=wrap;rounded=0;fontColor=#FFFFFF;" parent="WIyWlLk6GJQsqaUBKTNV-1" vertex="1">
          <mxGeometry x="190" y="-1564.37" width="80" height="53.75" as="geometry" />
        </mxCell>
        <mxCell id="UDaEp6XYaym_nUN5YhJv-39" value="Working in ATC - 2022-2023" style="text;strokeColor=none;align=center;fillColor=none;html=1;verticalAlign=middle;whiteSpace=wrap;rounded=0;fontColor=#FFFFFF;" parent="WIyWlLk6GJQsqaUBKTNV-1" vertex="1">
          <mxGeometry x="360" y="-1553.75" width="60" height="30" as="geometry" />
        </mxCell>
        <mxCell id="UDaEp6XYaym_nUN5YhJv-42" value="" style="shape=tape;whiteSpace=wrap;html=1;strokeWidth=2;size=0.19;fillColor=#CC99FF;strokeColor=#9673a6;gradientColor=default;" parent="WIyWlLk6GJQsqaUBKTNV-1" vertex="1">
          <mxGeometry x="660" y="-1571.25" width="100" height="65" as="geometry" />
        </mxCell>
        <mxCell id="UDaEp6XYaym_nUN5YhJv-43" value="" style="shape=tape;whiteSpace=wrap;html=1;strokeWidth=2;size=0.19;fillColor=#CC99FF;strokeColor=#9673a6;gradientColor=default;" parent="WIyWlLk6GJQsqaUBKTNV-1" vertex="1">
          <mxGeometry x="660" y="-1470" width="100" height="65" as="geometry" />
        </mxCell>
        <mxCell id="UDaEp6XYaym_nUN5YhJv-44" value="LEARN Academy -2023" style="text;strokeColor=none;align=center;fillColor=none;html=1;verticalAlign=middle;whiteSpace=wrap;rounded=0;fontColor=#FFFFFF;" parent="WIyWlLk6GJQsqaUBKTNV-1" vertex="1">
          <mxGeometry x="520" y="-1553.75" width="60" height="30" as="geometry" />
        </mxCell>
        <mxCell id="UDaEp6XYaym_nUN5YhJv-45" value="" style="endArrow=none;html=1;rounded=0;exitX=1;exitY=0.5;exitDx=0;exitDy=0;exitPerimeter=0;entryX=0;entryY=0.5;entryDx=0;entryDy=0;entryPerimeter=0;" parent="WIyWlLk6GJQsqaUBKTNV-1" edge="1">
          <mxGeometry width="50" height="50" relative="1" as="geometry">
            <mxPoint x="600" y="-1539.25" as="sourcePoint" />
            <mxPoint x="660" y="-1539.25" as="targetPoint" />
          </mxGeometry>
        </mxCell>
        <mxCell id="UDaEp6XYaym_nUN5YhJv-46" value="" style="endArrow=none;html=1;rounded=0;entryX=0.51;entryY=0.877;entryDx=0;entryDy=0;entryPerimeter=0;" parent="WIyWlLk6GJQsqaUBKTNV-1" edge="1">
          <mxGeometry width="50" height="50" relative="1" as="geometry">
            <mxPoint x="710" y="-1360.63" as="sourcePoint" />
            <mxPoint x="709.5" y="-1411.25" as="targetPoint" />
          </mxGeometry>
        </mxCell>
        <mxCell id="UDaEp6XYaym_nUN5YhJv-49" value="Working as Jr Dev or Data - 2024" style="text;strokeColor=none;align=center;fillColor=none;html=1;verticalAlign=middle;whiteSpace=wrap;rounded=0;fontColor=#FFFFFF;" parent="WIyWlLk6GJQsqaUBKTNV-1" vertex="1">
          <mxGeometry x="670" y="-1557.5" width="80" height="33.75" as="geometry" />
        </mxCell>
        <mxCell id="UDaEp6XYaym_nUN5YhJv-50" value="Master in&amp;nbsp;&lt;br&gt;Biostatistics - 2025" style="text;strokeColor=none;align=center;fillColor=none;html=1;verticalAlign=middle;whiteSpace=wrap;rounded=0;fontColor=#FFFFFF;" parent="WIyWlLk6GJQsqaUBKTNV-1" vertex="1">
          <mxGeometry x="680" y="-1452.5" width="60" height="30" as="geometry" />
        </mxCell>
        <mxCell id="UDaEp6XYaym_nUN5YhJv-51" value="" style="shape=tape;whiteSpace=wrap;html=1;strokeWidth=2;size=0.19;fillColor=#CC99FF;strokeColor=#9673a6;gradientColor=default;" parent="WIyWlLk6GJQsqaUBKTNV-1" vertex="1">
          <mxGeometry x="500" y="-1470" width="100" height="65" as="geometry" />
        </mxCell>
        <mxCell id="UDaEp6XYaym_nUN5YhJv-52" value="Genome Sequencing job&amp;nbsp;&lt;br&gt;2030" style="text;strokeColor=none;align=center;fillColor=none;html=1;verticalAlign=middle;whiteSpace=wrap;rounded=0;fontColor=#FFFFFF;" parent="WIyWlLk6GJQsqaUBKTNV-1" vertex="1">
          <mxGeometry x="495" y="-1463.75" width="110" height="52.5" as="geometry" />
        </mxCell>
        <mxCell id="UDaEp6XYaym_nUN5YhJv-53" value="" style="shape=tape;whiteSpace=wrap;html=1;strokeWidth=2;size=0.19;fillColor=#CC99FF;strokeColor=#9673a6;gradientColor=default;" parent="WIyWlLk6GJQsqaUBKTNV-1" vertex="1">
          <mxGeometry x="660" y="-1370" width="100" height="65" as="geometry" />
        </mxCell>
        <mxCell id="UDaEp6XYaym_nUN5YhJv-54" value="Sr Data job&amp;nbsp;&lt;br&gt;2030" style="text;strokeColor=none;align=center;fillColor=none;html=1;verticalAlign=middle;whiteSpace=wrap;rounded=0;fontColor=#FFFFFF;" parent="WIyWlLk6GJQsqaUBKTNV-1" vertex="1">
          <mxGeometry x="680" y="-1352.5" width="60" height="30" as="geometry" />
        </mxCell>
        <mxCell id="UDaEp6XYaym_nUN5YhJv-55" value="" style="endArrow=none;html=1;rounded=0;exitX=1;exitY=0.5;exitDx=0;exitDy=0;exitPerimeter=0;entryX=0;entryY=0.5;entryDx=0;entryDy=0;entryPerimeter=0;" parent="WIyWlLk6GJQsqaUBKTNV-1" edge="1">
          <mxGeometry width="50" height="50" relative="1" as="geometry">
            <mxPoint x="600" y="-1438" as="sourcePoint" />
            <mxPoint x="660" y="-1438" as="targetPoint" />
          </mxGeometry>
        </mxCell>
        <mxCell id="UDaEp6XYaym_nUN5YhJv-56" value="" style="endArrow=none;html=1;rounded=0;entryX=0.51;entryY=0.877;entryDx=0;entryDy=0;entryPerimeter=0;" parent="WIyWlLk6GJQsqaUBKTNV-1" edge="1">
          <mxGeometry width="50" height="50" relative="1" as="geometry">
            <mxPoint x="710" y="-1463.75" as="sourcePoint" />
            <mxPoint x="709.5" y="-1514.37" as="targetPoint" />
          </mxGeometry>
        </mxCell>
        <mxCell id="UDaEp6XYaym_nUN5YhJv-58" value="" style="shape=curlyBracket;whiteSpace=wrap;html=1;rounded=1;flipH=1;labelPosition=right;verticalLabelPosition=middle;align=left;verticalAlign=middle;" parent="WIyWlLk6GJQsqaUBKTNV-1" vertex="1">
          <mxGeometry x="780" y="-1762.5" width="20" height="120" as="geometry" />
        </mxCell>
        <mxCell id="UDaEp6XYaym_nUN5YhJv-59" value="" style="shape=tape;whiteSpace=wrap;html=1;strokeWidth=2;size=0.19;fillColor=#CC99FF;strokeColor=#9673a6;gradientColor=default;" parent="WIyWlLk6GJQsqaUBKTNV-1" vertex="1">
          <mxGeometry x="820" y="-1735" width="100" height="65" as="geometry" />
        </mxCell>
        <mxCell id="UDaEp6XYaym_nUN5YhJv-60" value="Soccer 2009-2020" style="text;strokeColor=none;align=center;fillColor=none;html=1;verticalAlign=middle;whiteSpace=wrap;rounded=0;fontColor=#FFFFFF;" parent="WIyWlLk6GJQsqaUBKTNV-1" vertex="1">
          <mxGeometry x="840" y="-1718.75" width="60" height="30" as="geometry" />
        </mxCell>
        <mxCell id="UDaEp6XYaym_nUN5YhJv-61" value="" style="shape=image;verticalLabelPosition=bottom;labelBackgroundColor=default;verticalAlign=top;aspect=fixed;imageAspect=0;image=https://upload.wikimedia.org/wikipedia/commons/3/3f/Boxers_fracture.JPG;" parent="WIyWlLk6GJQsqaUBKTNV-1" vertex="1">
          <mxGeometry x="200" y="-1866.67" width="65" height="86.67" as="geometry" />
        </mxCell>
        <mxCell id="UDaEp6XYaym_nUN5YhJv-62" value="" style="shape=image;verticalLabelPosition=bottom;labelBackgroundColor=default;verticalAlign=top;aspect=fixed;imageAspect=0;image=https://live.staticflickr.com/5125/5273806701_7414336576_b.jpg;" parent="WIyWlLk6GJQsqaUBKTNV-1" vertex="1">
          <mxGeometry x="20" y="-1854.8799999999999" width="100" height="63.1" as="geometry" />
        </mxCell>
        <mxCell id="UDaEp6XYaym_nUN5YhJv-63" value="" style="shape=image;verticalLabelPosition=bottom;labelBackgroundColor=default;verticalAlign=top;aspect=fixed;imageAspect=0;image=https://cdn4.picryl.com/photo/2019/09/17/ferris-wheel-at-irvine-spectrum-center-a-shopping-center-located-in-orange-1185e4-1024.jpg;" parent="WIyWlLk6GJQsqaUBKTNV-1" vertex="1">
          <mxGeometry x="508" y="-1845.84" width="84" height="54.06" as="geometry" />
        </mxCell>
        <mxCell id="UzkfvClZWq-bSaXmTjws-0" value="" style="shape=image;verticalLabelPosition=bottom;labelBackgroundColor=default;verticalAlign=top;aspect=fixed;imageAspect=0;image=https://www.mtmercy.edu/_images/gallery/dre-cassie.jpg;" vertex="1" parent="WIyWlLk6GJQsqaUBKTNV-1">
          <mxGeometry x="820" y="-1828.13" width="112" height="65.63" as="geometry" />
        </mxCell>
        <mxCell id="UzkfvClZWq-bSaXmTjws-1" value="" style="shape=image;verticalLabelPosition=bottom;labelBackgroundColor=default;verticalAlign=top;aspect=fixed;imageAspect=0;image=https://www.mtmercy.edu/_images/gallery/dre-sga.jpg;" vertex="1" parent="WIyWlLk6GJQsqaUBKTNV-1">
          <mxGeometry x="498" y="-1728.75" width="102" height="59.78" as="geometry" />
        </mxCell>
        <mxCell id="UzkfvClZWq-bSaXmTjws-2" value="" style="shape=image;verticalLabelPosition=bottom;labelBackgroundColor=default;verticalAlign=top;aspect=fixed;imageAspect=0;image=https://mountmercymustangs.com/images/2018-19/wsoccer_lopez_a.jpg;" vertex="1" parent="WIyWlLk6GJQsqaUBKTNV-1">
          <mxGeometry x="820" y="-1657.5" width="130" height="63.92" as="geometry" />
        </mxCell>
        <mxCell id="UzkfvClZWq-bSaXmTjws-3" value="" style="shape=image;verticalLabelPosition=bottom;labelBackgroundColor=default;verticalAlign=top;aspect=fixed;imageAspect=0;image=https://mountmercymustangs.com/images/2019-20/wsoccer_lopez_a.jpg;" vertex="1" parent="WIyWlLk6GJQsqaUBKTNV-1">
          <mxGeometry x="960" y="-1743.75" width="150" height="73.75" as="geometry" />
        </mxCell>
        <mxCell id="UzkfvClZWq-bSaXmTjws-4" value="" style="shape=image;verticalLabelPosition=bottom;labelBackgroundColor=default;verticalAlign=top;aspect=fixed;imageAspect=0;image=https://heng.sa/wp-content/uploads/2015/09/Trends-of-Hospital-Interior-Design.jpg;" vertex="1" parent="WIyWlLk6GJQsqaUBKTNV-1">
          <mxGeometry x="176.95" y="-1723.75" width="106.09" height="58.75" as="geometry" />
        </mxCell>
        <mxCell id="UzkfvClZWq-bSaXmTjws-5" value="" style="shape=image;verticalLabelPosition=bottom;labelBackgroundColor=default;verticalAlign=top;aspect=fixed;imageAspect=0;image=https://www.public-health.uiowa.edu/wp-content/uploads/2021/02/2020_08_24-First-Day-of-Classes-Fall-2020-jatorner-0013-2592x1458.jpg;" vertex="1" parent="WIyWlLk6GJQsqaUBKTNV-1">
          <mxGeometry x="25" y="-1506.25" width="90" height="50.63" as="geometry" />
        </mxCell>
        <mxCell id="UzkfvClZWq-bSaXmTjws-6" value="" style="shape=image;verticalLabelPosition=bottom;labelBackgroundColor=default;verticalAlign=top;aspect=fixed;imageAspect=0;image=https://npr.brightspotcdn.com/f4/bb/00a4fc0a4618b5ca9536b4ed0b3f/image-from-rawpixel-id-3338043-genetic-testing.jpeg;" vertex="1" parent="WIyWlLk6GJQsqaUBKTNV-1">
          <mxGeometry x="166.25" y="-1505" width="127.5" height="53.87" as="geometry" />
        </mxCell>
        <mxCell id="UzkfvClZWq-bSaXmTjws-7" value="" style="shape=image;verticalLabelPosition=bottom;labelBackgroundColor=default;verticalAlign=top;aspect=fixed;imageAspect=0;image=https://freerangestock.com/sample/60909/desktop-computer-modern-device.jpg;" vertex="1" parent="WIyWlLk6GJQsqaUBKTNV-1">
          <mxGeometry x="340" y="-1505" width="100" height="66.39" as="geometry" />
        </mxCell>
        <mxCell id="UzkfvClZWq-bSaXmTjws-8" value="" style="shape=image;verticalLabelPosition=bottom;labelBackgroundColor=default;verticalAlign=top;aspect=fixed;imageAspect=0;image=https://live.staticflickr.com/65535/48322925721_b972755ed9_b.jpg;" vertex="1" parent="WIyWlLk6GJQsqaUBKTNV-1">
          <mxGeometry x="769" y="-1570.88" width="131" height="65.88" as="geometry" />
        </mxCell>
      </root>
    </mxGraphModel>
  </diagram>
</mxfile>
